# Blender v2.82 (sub 7) OBJ File: 'stool.blend'
# www.blender.org
mtllib stool.mtl
o Cube.002
v -0.393123 0.732686 -0.393123
v -0.393123 0.813168 -0.393123
v -0.393123 0.732685 0.393123
v -0.393123 0.813168 0.393123
v 0.393123 0.732685 -0.393123
v 0.393123 0.813168 -0.393123
v 0.393123 0.732685 0.393123
v 0.393123 0.813168 0.393123
v -0.196562 0.732686 -0.196562
v -0.196562 0.732685 0.196562
v 0.196562 0.732685 -0.196562
v 0.196562 0.732685 0.196562
v 0.218674 0.000138 -0.218675
v -0.218675 0.000138 -0.218675
v -0.343983 0.732686 -0.196562
v -0.343983 0.732685 0.196562
v 0.343983 0.732685 -0.196562
v 0.343983 0.732685 0.196562
v 0.393123 0.732685 -0.343983
v -0.393123 0.732686 -0.343983
v -0.196562 0.732686 -0.343983
v 0.196562 0.732685 -0.343983
v -0.343983 0.732686 -0.343983
v 0.343983 0.732685 -0.343983
v -0.393123 0.732685 0.343983
v -0.196562 0.732685 0.343983
v 0.196562 0.732685 0.343983
v 0.393123 0.732685 0.343983
v -0.343983 0.732685 0.343983
v 0.343983 0.732685 0.343983
v 0.218674 0.000137 0.218675
v -0.218675 0.000138 0.218675
v 0.321869 0.000137 -0.218675
v 0.321869 0.000137 0.218675
v -0.218675 0.000138 -0.321870
v 0.218674 0.000138 -0.321870
v -0.321870 0.000138 -0.218675
v -0.321870 0.000138 0.218675
v -0.321870 0.000138 -0.321870
v 0.321869 0.000138 -0.321870
v -0.218675 0.000138 0.321869
v 0.218674 0.000137 0.321869
v -0.321870 0.000138 0.321869
v 0.321869 0.000137 0.321869
v 0.200057 0.602394 0.305379
v 0.200057 0.602394 0.235165
v 0.307127 0.732685 -0.196562
v 0.307127 0.732685 0.196562
v 0.296071 0.000137 0.218675
v 0.296071 0.000137 -0.218675
v 0.233417 0.732685 -0.196562
v 0.233417 0.732685 0.196562
v 0.244473 0.000137 0.218675
v 0.244473 0.000138 -0.218675
v -0.305380 0.602394 0.200057
v -0.233572 0.602394 0.200057
v -0.200058 0.602394 -0.235165
v -0.243304 0.000138 0.218675
v -0.243304 0.000138 -0.218675
v -0.231745 0.732686 -0.196562
v -0.231745 0.732685 0.196562
v -0.296071 0.000138 0.218675
v -0.296071 0.000138 -0.218675
v -0.307127 0.732686 -0.196562
v -0.307127 0.732685 0.196562
v 0.200057 0.602394 -0.235165
v 0.200057 0.602394 -0.305380
v 0.235165 0.602394 -0.200058
v 0.305379 0.602394 -0.200058
v 0.218674 0.000138 -0.296071
v -0.218675 0.000138 -0.296071
v -0.196562 0.732686 -0.307127
v 0.196562 0.732685 -0.307127
v 0.235165 0.602394 0.200057
v -0.200058 0.602394 -0.305380
v 0.218674 0.000138 -0.244474
v -0.218675 0.000138 -0.244474
v -0.196562 0.732686 -0.233417
v 0.196562 0.732685 -0.233417
v 0.305379 0.602394 0.200057
v -0.305380 0.602394 -0.200058
v -0.196562 0.732685 0.233417
v -0.218675 0.000138 0.244473
v -0.196562 0.732685 0.307127
v -0.218675 0.000138 0.296071
v -0.233572 0.602394 -0.200058
v 0.196562 0.732685 0.233417
v 0.218674 0.000137 0.244473
v 0.196562 0.732685 0.307127
v 0.218674 0.000137 0.296071
v -0.200058 0.602394 0.235165
v -0.200058 0.602394 0.305379
vt 0.959872 0.331414
vt 0.959872 0.031694
vt 0.959872 0.010285
vt 0.992455 0.010285
vt 0.992455 0.352822
vt 0.959872 0.352822
vt 0.363107 0.395519
vt 0.020570 0.395519
vt 0.020570 0.362936
vt 0.363107 0.362936
vt 0.754102 0.028691
vt 0.754103 0.328410
vt 0.734202 0.328410
vt 0.734202 0.264185
vt 0.734202 0.092916
vt 0.734202 0.028691
vt 0.250181 0.759414
vt 0.250181 0.775470
vt 0.090976 0.775470
vt 0.090976 0.759414
vt 0.983850 0.794915
vt 0.927066 0.795623
vt 0.664567 0.799392
vt 0.664567 0.788945
vt 0.983850 0.779989
vt 0.074749 0.171399
vt 0.074749 0.213191
vt 0.029791 0.213191
vt 0.029791 0.202743
vt 0.029791 0.181373
vt 0.029791 0.171399
vt 0.041030 0.171399
vt 0.063509 0.171399
vt 0.337164 0.621386
vt 0.280381 0.622094
vt 0.017882 0.625864
vt 0.017882 0.615417
vt 0.337164 0.606461
vt 0.754103 0.349819
vt 0.435693 0.349819
vt 0.435693 0.328410
vt 0.455593 0.328410
vt 0.515295 0.328410
vt 0.674500 0.328410
vt 0.650284 0.960273
vt 0.992821 0.960272
vt 0.992821 0.992856
vt 0.650284 0.992856
vt 0.455593 0.028691
vt 0.455593 0.092916
vt 0.455593 0.264185
vt 0.435693 0.028691
vt 0.515295 0.312354
vt 0.674500 0.312354
vt 0.664567 0.892229
vt 0.664567 0.850438
vt 0.983850 0.841482
vt 0.983850 0.901184
vt 0.337164 0.544968
vt 0.337164 0.559893
vt 0.280381 0.560601
vt 0.017882 0.564371
vt 0.017882 0.553923
vt 0.515295 0.028691
vt 0.435693 0.007282
vt 0.754102 0.007282
vt 0.674500 0.028691
vt 0.426140 0.349819
vt 0.107731 0.349819
vt 0.107731 0.007282
vt 0.426140 0.007282
vt 0.958175 0.680006
vt 0.958175 0.380286
vt 0.958175 0.358878
vt 0.990758 0.358878
vt 0.990758 0.701415
vt 0.958175 0.701415
vt 0.645879 0.885441
vt 0.645879 0.945143
vt 0.326596 0.936188
vt 0.326596 0.894397
vt 0.719276 0.264185
vt 0.719276 0.092916
vt 0.723249 0.374143
vt 0.723249 0.389069
vt 0.403966 0.380114
vt 0.403966 0.369666
vt 0.666466 0.373436
vt 0.723249 0.452353
vt 0.723249 0.512055
vt 0.403966 0.503099
vt 0.403966 0.461308
vt 0.945871 0.646386
vt 0.945872 0.661311
vt 0.889088 0.662019
vt 0.626589 0.665789
vt 0.626589 0.655341
vt 0.339504 0.411829
vt 0.282721 0.412537
vt 0.020222 0.416307
vt 0.020221 0.405859
vt 0.339504 0.396904
vt 0.470519 0.264185
vt 0.470519 0.092916
vt 0.645879 0.807232
vt 0.645879 0.822157
vt 0.326596 0.813202
vt 0.326596 0.802754
vt 0.589095 0.806524
vt 0.947549 0.517797
vt 0.773235 0.517797
vt 0.774758 0.465030
vt 0.946026 0.465030
vt 0.339504 0.456606
vt 0.020221 0.447650
vt 0.020221 0.437202
vt 0.282721 0.440972
vt 0.339504 0.441680
vt 0.983850 0.718496
vt 0.983850 0.733422
vt 0.927066 0.734130
vt 0.664567 0.737900
vt 0.664567 0.727452
vt 0.250181 0.946738
vt 0.265106 0.775470
vt 0.265106 0.946738
vt 0.589095 0.777444
vt 0.326596 0.781385
vt 0.927066 0.762565
vt 0.664567 0.758795
vt 0.645879 0.762456
vt 0.645879 0.776704
vt 0.326596 0.771411
vt 0.041030 0.104491
vt 0.029791 0.104491
vt 0.029791 0.062700
vt 0.074749 0.062700
vt 0.074749 0.073148
vt 0.074749 0.094044
vt 0.074749 0.104491
vt 0.063509 0.104491
vt 0.337164 0.589744
vt 0.337164 0.604670
vt 0.017882 0.595715
vt 0.017882 0.585267
vt 0.280381 0.589037
vt 0.090976 0.946738
vt 0.076728 0.946738
vt 0.076728 0.775470
vt 0.947549 0.078476
vt 0.773235 0.078476
vt 0.773235 0.050041
vt 0.947549 0.050041
vt 0.664567 0.820762
vt 0.927066 0.824703
vt 0.280381 0.650530
vt 0.017882 0.646760
vt 0.889088 0.690454
vt 0.626589 0.686685
vt 0.773235 0.354749
vt 0.774758 0.301982
vt 0.946026 0.301982
vt 0.947549 0.354749
vt 0.773235 0.247633
vt 0.947549 0.247633
vt 0.946026 0.300399
vt 0.774758 0.300399
vt 0.773235 0.048364
vt 0.773235 0.019929
vt 0.947549 0.019929
vt 0.947549 0.048364
vt 0.674500 0.044747
vt 0.515295 0.044747
vt 0.774758 0.191701
vt 0.773235 0.138935
vt 0.947549 0.138935
vt 0.946026 0.191701
vt 0.774758 0.410681
vt 0.946026 0.410681
vt 0.947549 0.463447
vt 0.773235 0.463447
vt 0.020221 0.509143
vt 0.020221 0.467352
vt 0.339504 0.458397
vt 0.339504 0.518098
vt 0.337165 0.666163
vt 0.017882 0.657208
vt 0.337165 0.651237
vt 0.337165 0.667954
vt 0.337165 0.727656
vt 0.017882 0.718701
vt 0.017882 0.676909
vt 0.983850 0.763273
vt 0.983850 0.778198
vt 0.664567 0.769243
vt 0.723249 0.450562
vt 0.403966 0.441607
vt 0.403966 0.399815
vt 0.723249 0.390860
vt 0.773235 0.107764
vt 0.773235 0.079329
vt 0.947549 0.079329
vt 0.947549 0.107764
vt 0.774758 0.409098
vt 0.773235 0.356332
vt 0.947549 0.356332
vt 0.946026 0.409098
vt 0.626589 0.635640
vt 0.626589 0.593848
vt 0.945872 0.584893
vt 0.945872 0.644595
vt 0.063509 0.147536
vt 0.041030 0.147536
vt 0.029791 0.147536
vt 0.029791 0.137089
vt 0.029791 0.116193
vt 0.029791 0.105745
vt 0.074749 0.105745
vt 0.074749 0.147536
vt 0.645879 0.823949
vt 0.645879 0.883650
vt 0.326596 0.874695
vt 0.326596 0.832904
vt 0.339504 0.519890
vt 0.339504 0.534815
vt 0.282721 0.535523
vt 0.020221 0.539293
vt 0.020221 0.528845
vt 0.988828 0.935233
vt 0.988828 0.950159
vt 0.669546 0.941203
vt 0.669546 0.930756
vt 0.932045 0.934525
vt 0.946026 0.572147
vt 0.774758 0.572147
vt 0.773235 0.519380
vt 0.947549 0.519380
vt 0.029791 0.061446
vt 0.029791 0.019655
vt 0.041030 0.019655
vt 0.063509 0.019655
vt 0.074749 0.019655
vt 0.074749 0.029629
vt 0.074749 0.050999
vt 0.074749 0.061446
vt 0.669546 0.909860
vt 0.932045 0.906090
vt 0.090976 0.962795
vt 0.250181 0.962795
vt 0.773235 0.108627
vt 0.947549 0.108627
vt 0.947549 0.137707
vt 0.773235 0.137707
vt 0.774758 0.246050
vt 0.773235 0.193284
vt 0.947549 0.193284
vt 0.946026 0.246050
vt 0.983850 0.839691
vt 0.664567 0.830736
vt 0.983850 0.825443
vn 1.0000 0.0000 -0.0000
vn -0.0000 0.0000 -1.0000
vn -0.0000 -1.0000 -0.0000
vn -0.0070 -0.0303 -0.9995
vn 0.9995 -0.0303 -0.0070
vn -0.0000 -0.0000 1.0000
vn 0.9995 -0.0302 0.0000
vn 0.0000 1.0000 0.0000
vn -1.0000 0.0000 0.0000
vn -0.9995 -0.0302 -0.0000
vn -0.9995 -0.0303 -0.0070
vn 0.0000 -0.0302 -0.9995
vn -0.9995 -0.0303 0.0070
vn 0.0070 -0.0303 0.9995
vn -0.0070 -0.0303 0.9995
vn -0.0000 -0.0134 -0.9999
vn 0.0000 -0.0309 0.9995
vn 0.0000 -0.0309 -0.9995
vn 0.0073 -0.0303 0.9995
vn 0.9995 -0.0303 0.0070
vn 0.9995 -0.0309 -0.0000
vn -0.9995 -0.0309 0.0000
vn 0.0000 -0.0134 0.9999
vn -0.9999 -0.0134 -0.0000
vn 0.9999 -0.0134 -0.0000
vn 0.0070 -0.0303 -0.9995
vn -0.0000 -0.0302 0.9995
vn 0.9999 -0.0140 -0.0000
vn 0.0073 -0.0303 -0.9995
usemtl None
s off
f 28/1/1 19/2/1 5/3/1 6/4/1 8/5/1 7/6/1
f 5/7/2 1/8/2 2/9/2 6/10/2
f 19/11/3 28/12/3 30/13/3 18/14/3 17/15/3 24/16/3
f 79/17/3 11/18/3 9/19/3 78/20/3
f 65/21/4 55/22/4 62/23/4 38/24/4 16/25/4
f 41/26/3 43/27/3 38/28/3 62/29/3 58/30/3 32/31/3 83/32/3 85/33/3
f 72/34/5 75/35/5 71/36/5 35/37/5 21/38/5
f 7/39/3 3/40/3 25/41/3 29/42/3 26/43/3 27/44/3 30/13/3 28/12/3
f 3/45/6 7/46/6 8/47/6 4/48/6
f 23/49/3 15/50/3 16/51/3 29/42/3 25/41/3 20/52/3
f 26/43/3 84/53/3 89/54/3 27/44/3
f 44/55/7 34/56/7 18/57/7 30/58/7
f 10/59/5 82/60/5 91/61/5 83/62/5 32/63/5
f 21/64/3 23/49/3 20/52/3 1/65/3 5/66/3 19/11/3 24/16/3 22/67/3
f 8/68/8 6/69/8 2/70/8 4/71/8
f 20/72/9 25/73/9 3/74/9 4/75/9 2/76/9 1/77/9
f 29/78/10 16/79/10 38/80/10 43/81/10
f 48/82/3 47/83/3 17/15/3 18/14/3
f 73/84/11 22/85/11 36/86/11 70/87/11 67/88/11
f 22/89/12 24/90/12 40/91/12 36/92/12
f 11/93/13 79/94/13 66/95/13 76/96/13 13/97/13
f 47/98/14 69/99/14 50/100/14 33/101/14 17/102/14
f 65/103/3 16/51/3 15/50/3 64/104/3
f 64/105/15 15/106/15 37/107/15 63/108/15 81/109/15
f 46/110/16 91/111/16 82/112/16 87/113/16
f 11/114/15 13/115/15 54/116/15 68/117/15 51/118/15
f 12/119/4 52/120/4 74/121/4 53/122/4 31/123/4
f 12/124/3 11/18/3 51/125/3 52/126/3
f 86/127/17 81/109/17 63/108/17 59/128/17
f 80/129/18 49/130/18 53/122/18 74/121/18
f 9/131/19 60/132/19 86/127/19 59/128/19 14/133/19
f 70/134/3 36/135/3 40/136/3 33/137/3 50/138/3 54/139/3 13/140/3 76/141/3
f 84/142/20 26/143/20 41/144/20 85/145/20 92/146/20
f 10/147/3 61/148/3 60/149/3 9/19/3
f 45/150/3 92/151/3 91/152/3 46/153/3
f 58/154/18 62/23/18 55/22/18 56/155/18
f 71/36/21 75/35/21 57/156/21 77/157/21
f 67/158/22 70/159/22 76/96/22 66/95/22
f 45/160/23 89/161/23 84/162/23 92/163/23
f 50/100/17 69/99/17 68/117/17 54/116/17
f 68/164/24 74/165/24 52/166/24 51/167/24
f 68/168/3 69/169/3 80/170/3 74/171/3
f 22/67/3 73/172/3 72/173/3 21/64/3
f 48/174/25 80/175/25 69/176/25 47/177/25
f 79/178/23 78/179/23 57/180/23 66/181/23
f 39/182/10 37/183/10 15/184/10 23/185/10
f 9/186/20 14/187/20 77/157/20 57/156/20 78/188/20
f 24/189/7 17/190/7 33/191/7 40/192/7
f 48/193/26 18/194/26 34/195/26 49/130/26 80/129/26
f 21/196/12 35/197/12 39/198/12 23/199/12
f 57/200/3 75/201/3 67/202/3 66/203/3
f 92/146/21 85/145/21 83/62/21 91/61/21
f 73/204/16 67/205/16 75/206/16 72/207/16
f 43/208/27 41/209/27 26/210/27 29/211/27
f 90/212/3 88/213/3 31/214/3 53/215/3 49/216/3 34/217/3 44/218/3 42/219/3
f 30/220/27 27/221/27 42/222/27 44/223/27
f 27/224/13 89/225/13 45/226/13 90/227/13 42/228/13
f 87/229/11 12/230/11 31/231/11 88/232/11 46/233/11
f 60/234/28 61/235/28 56/236/28 86/237/28
f 39/238/3 35/239/3 71/240/3 77/241/3 14/242/3 59/243/3 63/244/3 37/245/3
f 46/233/22 88/232/22 90/246/22 45/247/22
f 82/248/3 10/147/3 12/124/3 87/249/3
f 11/18/3 12/124/3 10/147/3 9/19/3
f 86/250/3 56/251/3 55/252/3 81/253/3
f 64/254/24 81/255/24 55/256/24 65/257/24
f 10/258/29 32/259/29 58/154/29 56/155/29 61/260/29
