mtllib scene.mtl
o Object_4
usemtl Material.001
v -0.6393001146092487 0.44270509889209664 -0.47769110140657034
v -0.6393001146092487 0.46874093601619804 -0.47769110140657034
v 0.6545220039667683 0.46874093601619804 -0.47769110140657034
v 0.6545220039667683 0.44270509889209664 -0.47769110140657034
v 0.6651565330429534 0.46874093601619804 -0.4670565723303852
v 0.6637317801940696 0.46874093601619804 -0.4723738368684778
v 0.6598392685048609 0.46874093601619804 -0.47626634855768657
v 0.6545220039667683 0.46874093601619804 -0.47769110140657034
v -0.6393001146092487 0.46874093601619804 -0.47769110140657034
v -0.6522283238261011 0.46874093601619804 -0.47422698859998036
v -0.6616924202363634 0.46874093601619804 -0.464762892189718
v -0.6651565330429534 0.46874093601619804 -0.45183468297286566
v -0.6651565330429534 0.46874093601619804 0.43930465989851797
v -0.6600137470790202 0.46874093601619804 0.45849788065254415
v -0.6459633122889272 0.46874093601619804 0.4725483154426371
v -0.626770091534901 0.46874093601619804 0.47769110140657034
v 0.6429908673971951 0.46874093601619804 0.47769110140657034
v 0.6540737002200743 0.46874093601619804 0.4747214556363488
v 0.6621868872727319 0.46874093601619804 0.4666082685836912
v 0.6651565330429534 0.46874093601619804 0.45552543576081206
v 0.6651565330429534 0.46874093601619804 -0.4670565723303852
v 0.6651565330429534 0.44270509889209664 -0.4670565723303852
v 0.6637317801940696 0.44270509889209664 -0.4723738368684778
v 0.6637317801940696 0.46874093601619804 -0.4723738368684778
v 0.6637317801940696 0.46874093601619804 -0.4723738368684778
v 0.6637317801940696 0.44270509889209664 -0.4723738368684778
v 0.6598392685048609 0.44270509889209664 -0.47626634855768657
v 0.6598392685048609 0.46874093601619804 -0.47626634855768657
v 0.6651565330429534 0.46874093601619804 0.45552543576081206
v 0.6651565330429534 0.44270509889209664 0.45552543576081206
v 0.6429908673971951 0.46874093601619804 0.47769110140657034
v 0.6429908673971951 0.44270509889209664 0.47769110140657034
v 0.6540737002200743 0.44270509889209664 0.4747214556363488
v 0.6540737002200743 0.46874093601619804 0.4747214556363488
v 0.6540737002200743 0.46874093601619804 0.4747214556363488
v 0.6540737002200743 0.44270509889209664 0.4747214556363488
v 0.6621868872727319 0.44270509889209664 0.4666082685836912
v 0.6621868872727319 0.46874093601619804 0.4666082685836912
v -0.6651565330429534 0.44270509889209664 -0.45183468297286566
v -0.6616924202363634 0.44270509889209664 -0.464762892189718
v -0.6522283238261011 0.44270509889209664 -0.47422698859998036
v -0.6393001146092487 0.44270509889209664 -0.47769110140657034
v 0.6545220039667683 0.44270509889209664 -0.47769110140657034
v 0.6598392685048609 0.44270509889209664 -0.47626634855768657
v 0.6637317801940696 0.44270509889209664 -0.4723738368684778
v 0.6651565330429534 0.44270509889209664 -0.4670565723303852
v 0.6651565330429534 0.44270509889209664 0.45552543576081206
v 0.6621868872727319 0.44270509889209664 0.4666082685836912
v 0.6540737002200743 0.44270509889209664 0.4747214556363488
v 0.6429908673971951 0.44270509889209664 0.47769110140657034
v -0.626770091534901 0.44270509889209664 0.47769110140657034
v -0.6459633122889272 0.44270509889209664 0.4725483154426371
v -0.6600137470790202 0.44270509889209664 0.45849788065254415
v -0.6651565330429534 0.44270509889209664 0.43930465989851797
v -0.6522283238261011 0.44270509889209664 -0.47422698859998036
v -0.6522283238261011 0.46874093601619804 -0.47422698859998036
v -0.6522283238261011 0.46874093601619804 -0.47422698859998036
v -0.6522283238261011 0.44270509889209664 -0.47422698859998036
v -0.6616924202363634 0.44270509889209664 -0.464762892189718
v -0.6616924202363634 0.46874093601619804 -0.464762892189718
v -0.6651565330429534 0.44270509889209664 -0.45183468297286566
v -0.6651565330429534 0.46874093601619804 -0.45183468297286566
v -0.6651565330429534 0.44270509889209664 0.43930465989851797
v -0.6651565330429534 0.46874093601619804 0.43930465989851797
v -0.626770091534901 0.44270509889209664 0.47769110140657034
v -0.626770091534901 0.46874093601619804 0.47769110140657034
v -0.6459633122889272 0.46874093601619804 0.4725483154426371
v -0.6459633122889272 0.44270509889209664 0.4725483154426371
v -0.6459633122889272 0.44270509889209664 0.4725483154426371
v -0.6459633122889272 0.46874093601619804 0.4725483154426371
v -0.6600137470790202 0.46874093601619804 0.45849788065254415
v -0.6600137470790202 0.44270509889209664 0.45849788065254415
vt -1.214526891708374 0.5852136015892029
vt -1.174032211303711 0.6196886003017426
vt 0.4325680136680603 0.5647173821926117
vt 0.47084882855415344 0.5205726623535156
vt -0.1084291860461235 0.7456091344356537
vt -0.10675779730081558 0.7518469989299774
vt -0.10219131410121918 0.7564134150743484
vt -0.09595347195863724 0.75808484852314
vt 0.8720565438270569 0.7580848038196564
vt 0.881727397441864 0.7554913610219955
vt 0.8888083696365356 0.7484105229377747
vt 0.8914017677307129 0.7387395799160004
vt 0.8914017677307129 0.07200813293457031
vt 0.8875519037246704 0.057646214962005615
vt 0.8770396709442139 0.04713404178619385
vt 0.8626818060874939 0.04328829050064087
vt -0.08732620626688004 0.043288230895996094
vt -0.09562619775533676 0.04550212621688843
vt -0.10173511505126953 0.05153334140777588
vt -0.10401617735624313 0.05976611375808716
vt -0.3435421288013458 -0.2516167163848877
vt -0.385367214679718 -0.2922126054763794
vt -0.39271897077560425 -0.29290151596069336
vt -0.35045668482780457 -0.2523062229156494
vt 0.4457734227180481 0.5642655491828918
vt 0.4847016930580139 0.5200413465499878
vt 0.4777752459049225 0.5203070044517517
vt 0.4391706883907318 0.564491480588913
vt 0.8561847805976868 -0.13197541236877441
vt 0.8902308344841003 -0.1726970672607422
vt 1.6983591318130493 0.7116945683956146
vt 1.7363941669464111 0.7490853369235992
vt 1.750832200050354 0.7496107518672943
vt 1.7121180295944214 0.7122522294521332
vt 0.8850089907646179 -0.12910103797912598
vt 0.9208779335021973 -0.16982555389404297
vt 0.9055544137954712 -0.17126131057739258
vt 0.8705968260765076 -0.13053834438323975
vt 0.019517790526151657 0.00008487701416015625
vt 0.009801256470382214 0.0026885271072387695
vt 0.002688273787498474 0.00980144739151001
vt 0.00008473276830045506 0.019517958164215088
vt 0.0000848626732476987 0.9919225303456187
vt 0.001155672362074256 0.9959188457578421
vt 0.0040811882354319096 0.9988443612819538
vt 0.008077512495219707 0.9999151707597775
vt 0.7014674544334412 0.9999152675081859
vt 0.7097969651222229 0.9976833562832326
vt 0.7158945798873901 0.9915856868028641
vt 0.7181264758110046 0.9832561016082764
vt 0.7181265950202942 0.028935015201568604
vt 0.7142613530158997 0.014509975910186768
vt 0.7037015557289124 0.0039498209953308105
vt 0.6892763376235962 0.00008469820022583008
vt -1.231367588043213 0.5858595073223114
vt -1.190085768699646 0.6202378869056702
vt -0.3642021417617798 1.399869680404663
vt -0.40007102489471436 1.440593957901001
vt -0.38219597935676575 1.4422687292099
vt -0.3473902642726898 1.4015462100505829
vt -0.36432093381881714 1.4439435303211212
vt -0.33057838678359985 1.403222769498825
vt 0.867803156375885 1.559385895729065
vt 0.8282603621482849 1.5187861323356628
vt 0.08224010467529297 0.6888882219791412
vt 0.1220085471868515 0.6478047966957092
vt 0.09818106144666672 0.646839052438736
vt 0.05723654478788376 0.6879782974720001
vt 0.9208777546882629 1.564358651638031
vt 0.8781781196594238 1.5237640738487244
vt 0.853219211101532 1.5212751030921936
vt 0.8943405151367188 1.5618723034858704
vn -0.13050029224505527 0 -0.9914482708260453
vn -0.13050029224505527 0 -0.9914482708260453
vn 0.13050029224505527 0 -0.9914482708260453
vn 0.13050029224505527 0 -0.9914482708260453
vn 0 1 0
vn 0 1 0
vn 0 1 0
vn 0 1 0
vn 0 1 0
vn 0 1 0
vn 0 1 0
vn 0 1 0
vn 0 1 0
vn 0 1 0
vn 0 1 0
vn 0 1 0
vn 0 1 0
vn 0 1 0
vn 0 1 0
vn 0 1 0
vn 0.9914482708260453 0 -0.13050029224505527
vn 0.9914482708260453 0 -0.13050029224505527
vn 0.8660315843665698 0 -0.4999892947649268
vn 0.8660315843665698 0 -0.4999892947649268
vn 0.8660315843665698 0 -0.4999892947649268
vn 0.8660315843665698 0 -0.4999892947649268
vn 0.4999892947649268 0 -0.8660315843665698
vn 0.4999892947649268 0 -0.8660315843665698
vn 0.9914482708260453 0 0.13050029224505527
vn 0.9914482708260453 0 0.13050029224505527
vn 0.13050029224505527 0 0.9914482708260453
vn 0.13050029224505527 0 0.9914482708260453
vn 0.4999892947649268 0 0.8660315843665698
vn 0.4999892947649268 0 0.8660315843665698
vn 0.4999892947649268 0 0.8660315843665698
vn 0.4999892947649268 0 0.8660315843665698
vn 0.8660315843665698 0 0.4999892947649268
vn 0.8660315843665698 0 0.4999892947649268
vn 0 -1 0
vn 0 -1 0
vn 0 -1 0
vn 0 -1 0
vn 0 -1 0
vn 0 -1 0
vn 0 -1 0
vn 0 -1 0
vn 0 -1 0
vn 0 -1 0
vn 0 -1 0
vn 0 -1 0
vn 0 -1 0
vn 0 -1 0
vn 0 -1 0
vn 0 -1 0
vn -0.4999892947649268 0 -0.8660315843665698
vn -0.4999892947649268 0 -0.8660315843665698
vn -0.4999892947649268 0 -0.8660315843665698
vn -0.4999892947649268 0 -0.8660315843665698
vn -0.8660315843665698 0 -0.4999892947649268
vn -0.8660315843665698 0 -0.4999892947649268
vn -0.9914482708260453 0 -0.13050029224505527
vn -0.9914482708260453 0 -0.13050029224505527
vn -0.9914482708260453 0 0.13050029224505527
vn -0.9914482708260453 0 0.13050029224505527
vn -0.13050029224505527 0 0.9914482708260453
vn -0.13050029224505527 0 0.9914482708260453
vn -0.4999892947649268 0 0.8660315843665698
vn -0.4999892947649268 0 0.8660315843665698
vn -0.4999892947649268 0 0.8660315843665698
vn -0.4999892947649268 0 0.8660315843665698
vn -0.8660315843665698 0 0.4999892947649268
vn -0.8660315843665698 0 0.4999892947649268
f 1/1/1 2/2/2 3/3/3
f 1/1/1 3/3/3 4/4/4
f 21/21/21 22/22/22 23/23/23
f 21/21/21 23/23/23 24/24/24
f 25/25/25 26/26/26 27/27/27
f 25/25/25 27/27/27 28/28/28
f 28/28/28 27/27/27 4/4/4
f 28/28/28 4/4/4 3/3/3
f 22/22/22 21/21/21 29/29/29
f 22/22/22 29/29/29 30/30/30
f 31/31/31 32/32/32 33/33/33
f 31/31/31 33/33/33 34/34/34
f 35/35/35 36/36/36 37/37/37
f 35/35/35 37/37/37 38/38/38
f 38/38/38 37/37/37 30/30/30
f 38/38/38 30/30/30 29/29/29
f 2/2/2 1/1/1 55/55/55
f 2/2/2 55/55/55 56/56/56
f 57/57/57 58/58/58 59/59/59
f 57/57/57 59/59/59 60/60/60
f 60/60/60 59/59/59 61/61/61
f 60/60/60 61/61/61 62/62/62
f 63/63/63 64/64/64 62/62/62
f 63/63/63 62/62/62 61/61/61
f 65/65/65 66/66/66 67/67/67
f 65/65/65 67/67/67 68/68/68
f 69/69/69 70/70/70 71/71/71
f 69/69/69 71/71/71 72/72/72
f 72/72/72 71/71/71 64/64/64
f 72/72/72 64/64/64 63/63/63
f 32/32/32 31/31/31 66/66/66
f 32/32/32 66/66/66 65/65/65
f 10/10/10 8/8/8 9/9/9
f 8/8/8 10/10/10 7/7/7
f 7/7/7 10/10/10 6/6/6
f 6/6/6 10/10/10 11/11/11
f 6/6/6 11/11/11 5/5/5
f 5/5/5 11/11/11 20/20/20
f 20/20/20 11/11/11 12/12/12
f 20/20/20 12/12/12 13/13/13
f 20/20/20 13/13/13 14/14/14
f 20/20/20 14/14/14 19/19/19
f 19/19/19 14/14/14 15/15/15
f 19/19/19 15/15/15 18/18/18
f 18/18/18 15/15/15 16/16/16
f 18/18/18 16/16/16 17/17/17
f 44/44/44 42/42/42 43/43/43
f 42/42/42 44/44/44 41/41/41
f 41/41/41 44/44/44 45/45/45
f 41/41/41 45/45/45 40/40/40
f 40/40/40 45/45/45 46/46/46
f 40/40/40 46/46/46 47/47/47
f 40/40/40 47/47/47 39/39/39
f 39/39/39 47/47/47 54/54/54
f 54/54/54 47/47/47 53/53/53
f 53/53/53 47/47/47 48/48/48
f 53/53/53 48/48/48 52/52/52
f 52/52/52 48/48/48 49/49/49
f 52/52/52 49/49/49 51/51/51
f 51/51/51 49/49/49 50/50/50
